<?xml version="1.0" encoding="UTF-8" standalone="no"?>
<!-- The icon can be used freely in both personal and commercial projects with no attribution required, but always appreciated. 
You may NOT sub-license, resell, rent, redistribute or otherwise transfer the icon without express written permission from iconmonstr.com -->

<svg
   xmlns:dc="http://purl.org/dc/elements/1.1/"
   xmlns:cc="http://creativecommons.org/ns#"
   xmlns:rdf="http://www.w3.org/1999/02/22-rdf-syntax-ns#"
   xmlns:svg="http://www.w3.org/2000/svg"
   xmlns="http://www.w3.org/2000/svg"
   xmlns:sodipodi="http://sodipodi.sourceforge.net/DTD/sodipodi-0.dtd"
   xmlns:inkscape="http://www.inkscape.org/namespaces/inkscape"
   version="1.1"
   x="0px"
   y="0px"
   width="512px"
   height="512px"
   viewBox="0 0 512 512"
   enable-background="new 0 0 512 512"
   xml:space="preserve"
   id="svg2"
   inkscape:version="0.48.2 r9819"
   sodipodi:docname="delete.svg"><metadata
   id="metadata9"><rdf:RDF><cc:Work
       rdf:about=""><dc:format>image/svg+xml</dc:format><dc:type
         rdf:resource="http://purl.org/dc/dcmitype/StillImage" /></cc:Work></rdf:RDF></metadata><defs
   id="defs7" /><sodipodi:namedview
   pagecolor="#ffffff"
   bordercolor="#666666"
   borderopacity="1"
   objecttolerance="10"
   gridtolerance="10"
   guidetolerance="10"
   inkscape:pageopacity="0"
   inkscape:pageshadow="2"
   inkscape:window-width="1010"
   inkscape:window-height="588"
   id="namedview5"
   showgrid="false"
   inkscape:zoom="0.4609375"
   inkscape:cx="-221.28814"
   inkscape:cy="256"
   inkscape:window-x="0"
   inkscape:window-y="22"
   inkscape:window-maximized="0"
   inkscape:current-layer="svg2" />
<path
   id="trash-can-4-icon"
   d="M375.421,305.97c-42.963,0-77.793,34.828-77.793,77.791c0,42.964,34.83,77.791,77.793,77.791  s77.791-34.827,77.791-77.791C453.212,340.798,418.384,305.97,375.421,305.97z M423.229,397.896h-93.352v-26.005h93.352V397.896z   M299.2,459.981c-37.591-37.591-41.172-95.154-13.183-136.485V210.462c0-8.291,6.716-15.012,15-15.012s15,6.721,15,15.012v83.317  c18.158-12.04,39.495-18.241,61.667-17.782V148.079H77.017V462h224.259C300.577,461.337,299.884,460.665,299.2,459.981z   M168.684,400.615c0,8.291-6.716,15.012-15,15.012s-15-6.721-15-15.012V210.462c0-8.291,6.716-15.012,15-15.012s15,6.721,15,15.012  V400.615z M242.351,400.615c0,8.291-6.716,15.012-15,15.012s-15-6.721-15-15.012V210.462c0-8.291,6.716-15.012,15-15.012  s15,6.721,15,15.012V400.615z M395.913,118.055H58.788V78.022h94.938c15.465,0,28-12.546,28-28.022h91.25  c0,15.477,12.536,28.022,28,28.022h94.938V118.055z"
   style="fill:#ca6f10;fill-opacity:1;fill-rule:nonzero" />
</svg>